<?xml version="1.0" encoding="utf-8"?>
<!-- Generator: Adobe Illustrator 24.0.0, SVG Export Plug-In . SVG Version: 6.00 Build 0)  -->
<svg version="1.1" id="Layer_1" xmlns="http://www.w3.org/2000/svg" xmlns:xlink="http://www.w3.org/1999/xlink" x="0px" y="0px"
	 viewBox="0 0 800 600" style="enable-background:new 0 0 800 600;" xml:space="preserve">
<style type="text/css">
	.st0{fill:none;}
	.st1{opacity:0.12;}
	.st2{fill:#003F31;}
	.st3{fill:#FFFFFF;}
</style>
<g>
	<rect y="-100" class="st0" width="800" height="800"/>
</g>
<g>
	<g class="st1">
		<path d="M288.4,84.8c0,1.9,0.1,3.8,0.2,5.6c0,3.8-0.1,7.6-0.1,11.4c0,7.4-0.2,14.9,0.8,22.2c0.7,5.1,2,10.1,4.2,14.8
			c2.2,4.8,5.3,9.1,8.5,13.2c6.3,8,13.9,15.1,22.5,20.6c9.5,6.2,20.1,10.5,31.4,12c-0.1,0,0.1-8.7,0.1-9.4c0-2.2,0-4.4,0-6.7
			c0-0.3,0-2.7-0.1-2.8c-12.8-1.7-24.8-7.1-35.2-14.6c-5.2-3.8-10.1-8.2-14.4-13c-4.4-4.8-8.4-10.1-11.5-15.8
			c-3.5-6.5-5.3-13.7-5.9-21.1c-0.1-0.7-0.1-1.4-0.1-2.1c0-0.4,0-0.8,0-1.2c0.1-5.6,0.1-11.2,0-16.7c0.1-0.8,0.3-1.6,0.6-2.3
			c0.5-1.1,1.2-2,1.9-3c0.7-1,1.4-2.1,1.8-3.2c0.1-0.3,0.2-0.6,0.2-0.9c0-0.2,0-0.9,0.1-1c0.2-0.2,1.1-0.3,1.4-0.3
			c0.6-0.1,1.2-0.3,1.7-0.4c0,0.4,0,0.8,0,1.2c0,0.4-0.2,2.6,0.1,2.8c12,8.3,20.8,20,30.6,30.6c9.1,9.8,20.1,18.6,26.5,30.6
			c0.7,1.4,1.4,2.8,2,4.2c0,0.7-0.1,1.5,0.1,1.7c0.3,0.3,0.6,0.7,0.9,1c1.7,5.2,2.6,10.8,3,16.2c0.1,0.9,0.1,1.8,0.2,2.7
			c0,1.4-0.1,3-0.1,4.5c-0.1,4.5-0.1,9-0.1,13.6c0,2.2,0,4.4,0,6.7c0,0.6-0.1,2,0.1,2.8c-0.2-0.7,0.1-2.2,0.1-2.8c0-0.7,0-1.4,0-2.2
			c0,0.1,0,0.1,0,0.2c0-0.3,0-0.5,0-0.8c0,0.1,0,0.2,0,0.3c0,0,0,0,0,0c0-0.4,0-0.9,0-1c0-1.1,0.1-2.5,0.1-3.4
			c0.1-2.2,0.1-5,0.2-7.5c0.1-8,0.2-16,0-23.9c2.7,5.1,4.2,11,5.6,16.4c2.4,9.2,4.8,18.5,5.6,28c0.1,1.9,0.2,3.9,0.3,5.8
			c0,1.5,0,2.9,0,4.4c0,0.5,0,1,0,1.4c0,0.1,0,0.4,0,0.7c0,1.1,0,2.2,0,3.3c0,0.2,0,0.7,0,0.8c0,0.5,0,1,0,1.5c0,1.1,0,2.3-0.1,3.4
			c0,2-0.1,4.1-0.2,6.1c-0.2,4.4-0.4,8.8-0.7,13.2c-0.1,1.6-0.3,3.2-0.4,4.8c-0.8,2.5-1.5,4.9-2.4,7.3c-0.2,0.6-0.1,2.2-0.1,2.8
			c0,2.2,0,4.4,0,6.7c0,0.7,0,1.4,0,2c-1.7,9.4-4,18.6-7.4,27.4c-5.8,15.2-14.6,29.1-24.3,42.1c-9.7,13-20.8,24.8-30.7,37.6
			c-9.5,12.3-17.8,25.7-24,40c-7,16.2-11.2,33.5-12.2,51.1c-0.2,3.8-0.1,7.7-0.1,11.6c0,1.9,0,3.8,0,5.6c0,0.2,0,1.9,0.1,0.9
			c0-0.8,0.1-1.7,0.2-2.5c1.8-23.1,9.3-45.3,20.8-65.3c5.8-10,12.5-19.4,19.8-28.3c7.6-9.2,15.5-18.1,22.9-27.6
			c7.4-9.5,14.2-19.4,20-29.9c5.9-10.9,10.2-22.4,13-34.5c2.2-9.3,3.5-18.7,4.4-28.1c6.1-20.3,9.2-41.5,17.9-60.9
			c2.5-5.5,5.5-10.6,8.6-15.7c0.9-1.6,1.9-3.1,2.8-4.7c0,0.7,0.1,1.5,0,1.6c8.8-5.3,18.9-3.6,28.7-3.7c10.9-0.2,21.7-2.5,32.2-5.5
			c10.6-3,20.9-6.8,31.2-10.6c8.9-3.3,17.7-6.7,26.1-11c15.7-8,30.1-18.6,41.6-32.2c4.9-5.8,9.2-12.2,13.1-18.8
			c3.5-6,6.8-12.1,9.4-18.6c1.3-3.3,2.4-6.6,3.1-10c0.3-1.5,0.5-3,0.5-4.6c0-0.2,0-0.3,0-0.5c0,0,0-0.3,0-1c0.1-3.6,0-7.2,0-10.8
			c0-2.6,0.1-5.2-0.1-7.8c-0.2-2.8-1-5.3-3.1-7.3c-3.3-3.1-7.6-2.4-11.5-1.2c-2.1,0.6-4.2,1.2-6.4,1.6c-2.8,0.5-5.6,0.7-8.4,0.9
			c-5.7,0.4-11.3,0.5-17,1.1c-5.4,0.5-10.6,1.7-15.8,3.1c-4.5,1.1-9,2.4-13.4,3.8c-17.3,5.5-33.5,13.7-47.2,25.6
			c-15.5,13.4-27.9,30.1-39,47.1c-5.6,8.6-10.8,17.4-16,26.2c-2.6,4.5-5.3,9-7.9,13.4c-2.7,4.5-5.5,8.9-8,13.6
			c-10.1,18.7-13.7,39.7-19.1,60.1c-0.3,1.1-0.6,2.2-0.9,3.4c0.3-9.7,0.3-19.4,0.4-29.1c0.1-9.7,0.3-19.5-0.3-29.3
			c-0.4-6.3-1.4-12.4-2.9-18.5c-2.4-9.6-4.2-19.7-8.9-28.5c-0.8-1.5-1.8-3-2.9-4.4c-0.7-2.2-1.6-4.4-2.7-6.5
			c-4.1-7.8-10.3-14.4-16.5-20.6c-3-3-6-6-9-9.1c-3.2-3.3-6.2-6.8-9.3-10.3c-6.9-7.8-14-15.6-22.6-21.6c0-0.4,0-0.8,0-1.2
			c0-0.3-0.1-2.7-0.1-2.8c-0.8,0.2-1.5,0.4-2.3,0.5c-0.2,0-0.3,0.1-0.5,0.1c-0.4-0.1-0.6,0.1-0.5,0.5c-0.1,0.2-0.1,0.5-0.1,0.7
			c-0.2,1.1-0.7,2.2-1.3,3.1c-1.1,1.7-2.4,3.2-3,5.2c-0.3,1.3-0.5,2.6-0.6,4c-0.2,2.3-0.2,4.7-0.2,7.1
			C288.2,76.9,288.2,85.3,288.4,84.8z M359.9,183.4C359.9,183.4,359.9,183.4,359.9,183.4C359.9,183.8,359.9,183.7,359.9,183.4z
			 M423.3,135.4c12.2-18.8,26.1-37.4,44-51.3c16.2-12.6,35.2-20.2,55-25.2c5.8-1.5,11.5-2.8,17.5-3.3c6.3-0.6,12.7-0.7,19-1.3
			c2.9-0.3,5.8-0.6,8.7-1.4c2.2-0.6,4.4-1.4,6.6-1.8c3.4-0.6,6.7,0.4,8.9,2.9c-0.8,2.3-1.7,4.6-2.7,6.8c-2.4,5.4-5.1,10.5-8.1,15.5
			c-7.1,12-15.7,22.8-26.2,31.9c-11.4,9.9-24.5,17.5-38.3,23.5c-7.8,3.4-15.8,6.2-23.7,9.1c-8.9,3.2-17.8,6.3-26.9,8.7
			c-8.9,2.4-18,4.2-27.1,4.5c-6,0.2-12.1-0.5-18.1,0C415.5,147.8,419.3,141.6,423.3,135.4z M288.6,96.3c0,0.2,0,0.4,0,0.6
			C288.6,96.7,288.6,96.3,288.6,96.3z"/>
		<path d="M214.9,197.6c0,1.2,0.1,2.4,0.2,3.7c0.3,3,0.8,6,1.4,8.9c1.1,6.3,2,12.7,3.8,18.9c1.8,6.2,4.3,12.2,7.7,17.7
			c3.2,5,7,9.6,11.2,13.9c8.4,8.6,18.3,16,28.8,21.9c2.8,1.5,5.5,2.8,8.5,3.8c3.1,1,6.3,1.8,9.4,2.9c3.1,1,6.1,2.3,8.8,4
			c2.7,1.7,5.1,3.9,7.7,5.6c2.5,1.7,5.2,3.1,7.9,4.7c2.8,1.7,5.7,3.3,8.6,4.9c2.8,1.5,5.7,3,8.7,4.2c0.2,1.4,0.3,2.9,0.4,4.3
			c0.1,1.8,0.2,3.5,0.3,5.3c0,0.4,0,0.8,0,1.3c0,0,0,0.3,0,0.6c0,0.7,0,1.4,0,2c0,1.3-0.1,3,0.1,4.3c0.1,1,0.1-1.1,0.1-0.9
			c0-1.9,0-3.8,0-5.6c0-3.6,0-7.2,0-10.9c2.5,1,5.1,1.7,7.8,2c0,0,0.1-8.7,0.1-9.4c0-0.7,0.2-9.4-0.1-9.4c-3-0.3-5.9-1.2-8.8-2.4
			c-0.6-5.4-1.7-10.7-3.3-15.9c-4-12.5-10.7-24.2-19.2-34.1c-4.1-4.8-8.6-9.3-13.1-13.8c-4.9-4.8-9.8-9.7-14.7-14.6
			c-4.8-4.8-9.8-9.4-15-13.7c-5.1-4.2-10.5-7.7-15.9-11.3c-4.4-2.9-8.6-6-13.2-8.6c-4.3-2.4-9.4-4.9-14.5-4.4
			c-1.2,0.1-2.3,0.4-3.3,0.8c0,0.1,0,0.2,0,0.3c0,0.6,0,1.1,0,1.7C214.6,179.7,214.7,197.3,214.9,197.6z M328.1,319.4
			c0,0.5,0,1.1,0,1.6c0-0.3,0-0.6,0-0.9C328.1,319.9,328.1,319.6,328.1,319.4z M227.9,198.1c4.7,2,9,4.8,13.2,7.7
			c4.3,2.9,8.7,5.7,13,8.7c5.1,3.6,9.9,7.5,14.5,11.7c4.7,4.2,9.1,8.7,13.6,13.1c4.4,4.4,8.9,8.7,13.3,13.2
			c8.5,8.5,16.2,17.6,21.8,28.3c1.8,3.4,3.5,7,4.9,10.6c-0.2-0.1-0.5-0.2-0.7-0.3c-4.9-2.5-9.7-5.4-14.4-8.2
			c-2.5-1.4-4.9-2.9-7.1-4.6c-2.5-1.9-4.9-3.8-7.6-5.3c-5.4-2.8-11.5-3.9-17.2-6c-5.4-1.9-10.3-5-15.1-8.2
			c-4.9-3.2-9.6-6.8-14.1-10.7c-8.6-7.5-16.5-16.3-21.4-26.7c-3.1-6.6-5.1-13.6-6.3-20.8c-0.3-1.4-0.5-2.9-0.7-4.3
			C220.9,195.7,224.6,196.7,227.9,198.1z"/>
		<path d="M233.7,551.3c3.7-5.4,6.7-11.1,9.8-16.9c6.6-12.4,13-25.1,17.2-38.6c2.3-7.5,3.9-15.2,4.3-23.1c0.2-3.8,0.1-7.7,0.1-11.6
			c0-1.9,0-3.8,0-5.6c0-0.2,0-1.9-0.1-0.9c0,0.3,0,0.7-0.1,1c-1,13.7-5.5,26.9-11.2,39.4c-2.9,6.4-6.1,12.7-9.4,18.9
			c-3,5.7-5.9,11.5-9.5,16.8c-3.8,5.5-8.6,11.4-9.4,18.3c-0.4,3.1-0.1,6.3-0.1,9.4c0,2.2,0,4.4,0,6.7c0,0.9,0.2,1.9,0.1,2.8
			C226.2,561.7,230.3,556.3,233.7,551.3z"/>
		<path d="M321.4,436.2c2-2,4-4,5.9-6c3.2,0.9,6.1,2.6,8.9,4.3c1.9,1.1,3.9,2.3,5.9,3.2c2.2,1,4.5,1.7,6.8,2.2
			c10,2.4,20.5,1.7,30.8,1.5c10.5-0.2,21-0.6,31.4-1.8c10.2-1.2,20.1-3.3,29.9-6.2c17-4.9,33.8-11.4,47.7-22.5
			c7.6-6.1,13.9-13.5,19.8-21.1c3.2-4.1,6.3-8.3,9.4-12.4c1.6-2.2,3.4-4.1,5.3-6.1c2.3-2.4,4.5-4.8,6.6-7.4c1.5-1.9,3.4-4.2,3.8-6.7
			c0.3-1.7,0.1-3.6,0.1-5.3c0-4.6,0.2-9.4-0.1-14c-0.1-1.2-0.3-2.4-1-3.4c-1.4-2-3.9-2.8-6.2-3.1c-5.9-1-12,0.2-17.9,0.5
			c-4.5,0.2-9-0.1-13.4-0.1c-5.3-0.1-10.7,0-16,0.6c-5,0.5-10,1.4-15,1.8c-5,0.4-10,0.7-15,1.2c-9.8,0.9-19.3,2.7-28.2,6.8
			c-8.7,4.1-16.7,9.6-24.5,15.2c-7.9,5.7-15.9,11.2-24,16.7c-8.1,5.5-16.2,11.1-23.8,17.3c-7.6,6.2-14.4,13.1-21.3,20
			c0,0-0.1,0.1-0.1,0.1c-1-0.3-2.1-0.5-3.1-0.6c0,0,0,1.8,0,3.8c-12.6,12.7-25.3,25.3-39.8,35.9c-3.7,2.7-7.6,5.3-11.5,7.7
			c-0.2,0.1-0.1,3-0.1,2.8c0,2.2,0,4.4,0,6.7c0,2.2,0,4.4,0,6.7c0,0.3,0.2,2.7,0.1,2.8C291.1,466,306.5,451.2,321.4,436.2z
			 M344.3,413.8c8.1-7.1,16.9-13.3,25.8-19.4c8.8-6,17.7-12,26.3-18.3c8.4-6.1,17.1-12.1,26.7-16.3c10-4.3,20.8-5.6,31.5-6.4
			c5.4-0.4,10.9-0.7,16.3-1.4c5.8-0.7,11.4-1.6,17.2-1.7c5.9-0.1,11.9,0.1,17.8,0.2c3.1,0,6.2-0.3,9.3-0.6c3.4-0.3,6.8-0.5,10.1-0.2
			c0.1,0,0.2,0,0.4,0c-0.1,0.1-0.3,0.3-0.4,0.4c-1.7,1.9-3.5,3.7-5.2,5.6c-2.3,2.6-4.3,5.7-6.4,8.5c-5.4,7.2-10.9,14.3-17.2,20.7
			c-5.5,5.6-11.8,10.4-18.5,14.4c-13.4,8-28.4,12.9-43.4,16.9c-18.1,4.8-36.9,5.9-55.5,6.2c-9.1,0.2-18.3,0.7-27.3-1
			c-4.1-0.8-8.1-1.9-11.7-3.9c0,0,0,0,0,0C341.4,416.4,342.8,415.1,344.3,413.8z"/>
	</g>
</g>
<g>
	<g>
		<path d="M25,329.1c0.2-3.6,0.4-7.4,0.5-11.3c0.2-4,0.3-8.1,0.4-12.3c0.1-4.2,0.2-8.5,0.3-12.9c0.1-4.4,0.1-8.8,0.1-13.3
			c0-5.3,0-10.6,0-16c0-5.3-0.1-10.5-0.2-15.6c-0.1-5.1-0.2-10-0.4-14.8c-0.2-4.8-0.4-9.3-0.6-13.6l69,0c4.2,0,8,0.5,11.4,1.6
			c3.4,1.1,6.4,2.6,8.9,4.5c2.6,1.9,4.7,4.1,6.5,6.6c1.7,2.5,3.1,5.2,4,8c0.9,2.8,1.4,5.7,1.5,8.7c0.1,3-0.3,5.9-1,8.8
			c-0.8,2.9-2,5.6-3.6,8.1c-1.6,2.6-3.7,4.8-6.1,6.8c-2.5,2-5.4,3.5-8.7,4.7c-3.3,1.2-7.1,1.9-11.2,2c2,1.3,3.8,2.9,5.4,4.7
			c1.6,1.8,3.1,3.9,4.5,6.2l17.1,27.3c0.9,1.4,1.7,2.7,2.6,3.9c0.9,1.2,1.8,2.3,2.7,3.2c0.9,0.9,1.8,1.6,2.7,2.2
			c0.9,0.5,1.8,0.8,2.8,0.9l2.9,0.1v1.5h-13.9c-1.1,0-2.2-0.2-3.4-0.6c-1.2-0.4-2.5-1.1-3.8-2c-1.3-0.9-2.7-2.1-4-3.5
			c-1.4-1.4-2.7-3.2-4-5.2l-15.3-24.2c-1.3-2.1-2.7-4-4.1-5.8c-1.4-1.8-3-3.3-4.8-4.6c-1.8-1.3-3.7-2.3-5.9-3
			c-2.2-0.7-4.6-1.1-7.4-1.1v0l-30.4,0c0,4.5,0.1,8.9,0.1,13.3c0.1,4.4,0.1,8.7,0.3,12.9c0.1,4.2,0.2,8.3,0.4,12.3
			c0.2,4,0.3,7.8,0.5,11.4H25z M39.2,271.5h54.5c3.3,0,6.1-0.6,8.6-1.9c2.4-1.3,4.5-3,6.1-5.1c1.6-2.1,2.9-4.5,3.7-7.2
			c0.8-2.7,1.2-5.4,1.2-8.2c0-2.8-0.4-5.5-1.2-8.2c-0.8-2.7-2-5.1-3.7-7.2c-1.6-2.1-3.7-3.8-6.1-5.1c-2.5-1.3-5.3-1.9-8.6-1.9
			l-54.5,0L39.2,271.5z"/>
		<path d="M250.8,219.2v18.2c-2.7-2.5-5.6-4.4-8.8-5.8c-3.1-1.4-6.3-2.5-9.7-3.2c-3.3-0.7-6.7-1.2-10.2-1.3
			c-3.5-0.2-6.9-0.3-10.3-0.3c-1.3,0-2.6,0-3.9,0c-1.3,0-2.6,0-3.9,0l-31.3,0h-9.2V266h43.9c4.6,0,8.6-0.2,12-0.6
			c3.4-0.4,6.3-1,8.8-1.8c2.4-0.8,4.4-1.9,5.9-3.3s2.7-3,3.5-4.9v28.7c-0.7-1.7-1.9-3.3-3.4-4.6c-1.5-1.3-3.5-2.4-5.9-3.3
			c-2.4-0.9-5.4-1.5-8.8-2c-3.4-0.4-7.5-0.7-12.1-0.7h-43.9v47.9l39.2,0c6.7,0,12.9-0.2,18.5-0.6c5.6-0.4,10.7-1,15.2-1.8
			c4.5-0.8,8.4-1.9,11.7-3.2c3.3-1.3,6.1-2.9,8.2-4.8l-4.3,18.2c-5.5,0-10.7,0-15.6,0c-4.9,0-9.6,0-14.2,0c-4.5,0-9,0-13.3,0
			c-4.3,0-8.6,0-12.9,0h-46.7c0.3-5.3,0.5-10.9,0.7-16.9c0.2-6,0.3-12.2,0.4-18.6c0.1-6.4,0.1-12.9,0.1-19.4c0-6.6,0-13.1-0.1-19.4
			c-0.1-6.4-0.2-12.6-0.4-18.6c-0.2-6-0.4-11.6-0.7-16.9H250.8z"/>
		<path d="M269.7,219.2h99.2v18.2c-1.4-1.3-2.9-2.4-4.3-3.4c-1.4-1-3-1.9-4.7-2.7c-1.7-0.8-3.6-1.4-5.7-2c-2.1-0.6-4.5-1-7.2-1.4
			c-2.7-0.4-5.8-0.6-9.3-0.8c-3.5-0.2-7.5-0.3-11.9-0.3l-34.7,0h-7.1l0,39.3h41.8c4.6,0,8.6-0.2,12-0.6c3.4-0.4,6.3-1,8.8-1.8
			c2.4-0.8,4.4-1.9,5.9-3.3c1.5-1.4,2.7-3,3.5-4.9v28.7c-0.7-1.7-1.9-3.3-3.4-4.6c-1.5-1.3-3.5-2.4-5.9-3.3c-2.4-0.9-5.4-1.5-8.8-2
			c-3.4-0.4-7.5-0.7-12.1-0.7l-41.8,0v5.6c0,4.5,0.1,8.9,0.1,13.3c0.1,4.4,0.1,8.7,0.3,12.9c0.1,4.2,0.2,8.3,0.4,12.3
			c0.2,4,0.3,7.7,0.5,11.3h-15.5c0.2-3.6,0.4-7.4,0.5-11.3c0.2-4,0.3-8.1,0.4-12.3c0.1-4.2,0.2-8.5,0.3-12.9
			c0.1-4.4,0.1-8.8,0.1-13.3c0-5.3,0-10.6,0-16c0-5.3-0.1-10.5-0.2-15.6c-0.1-5.1-0.2-10.1-0.4-14.9
			C270.1,228,269.9,223.4,269.7,219.2z"/>
		<path d="M382.1,329.1c0.4-5.3,0.8-10.9,1-16.9c0.2-6,0.4-12.2,0.5-18.6c0.1-6.4,0.1-12.9,0.1-19.4c0-6.6-0.1-13.1-0.3-19.4
			c-0.1-6.4-0.3-12.6-0.6-18.6c-0.2-6-0.5-11.6-0.7-16.9h16.3c-0.4,5.3-0.8,10.9-1.1,16.9c-0.3,6-0.5,12.2-0.7,18.6
			c-0.1,6.4-0.2,12.9-0.2,19.4c0,6.6,0.1,13.1,0.2,19.4c0.1,6.4,0.4,12.6,0.7,18.6c0.3,6,0.7,11.6,1.1,16.9H382.1z"/>
		<path d="M415.4,329.1c0.3-5.3,0.5-10.9,0.7-16.9c0.2-6,0.3-12.2,0.4-18.6c0.1-6.4,0.1-12.8,0.1-19.4c0-6.6,0-13-0.1-19.4
			c-0.1-6.4-0.2-12.6-0.4-18.6c-0.2-6-0.4-11.6-0.7-16.9l-0.2-3.1c8.9,8.5,17.7,16.7,26.5,24.6c8.8,7.9,17.4,15.5,25.9,22.8
			c8.4,7.2,16.6,14.1,24.6,20.5c7.9,6.4,15.5,12.4,22.6,17.9l0-24.9c0-5.1,0-10.3-0.1-15.4c0-5.1-0.1-10.1-0.2-15.1
			c-0.1-4.9-0.2-9.7-0.4-14.3c-0.2-4.6-0.4-9-0.6-13.2h12c-0.3,5.2-0.5,10.9-0.7,16.9c-0.2,6-0.3,12.2-0.4,18.6
			c-0.1,6.4-0.1,12.9-0.1,19.4c0,6.6,0,13.1,0.1,19.4c0.1,6.4,0.2,12.6,0.4,18.6c0.2,6,0.4,11.6,0.7,16.9l0.2,3.3
			c-5.9-5.7-11.7-11.2-17.3-16.5c-5.7-5.3-11.3-10.4-16.8-15.3c-5.5-4.9-11-9.7-16.4-14.4c-5.4-4.6-10.8-9.2-16.3-13.6
			c-5.4-4.4-10.8-8.8-16.3-13.2c-5.4-4.3-10.9-8.7-16.5-13l0,24.9c0,5.1,0,10.3,0.1,15.4c0,5.1,0.1,10.1,0.2,15
			c0.1,4.9,0.2,9.7,0.4,14.3c0.2,4.6,0.4,9,0.6,13.1H415.4z"/>
		<path d="M644,219.2v18.2c-2.7-2.5-5.6-4.4-8.8-5.8c-3.1-1.4-6.3-2.5-9.7-3.2c-3.3-0.7-6.7-1.2-10.2-1.3c-3.5-0.2-6.9-0.3-10.3-0.3
			c-1.3,0-2.6,0-3.9,0c-1.3,0-2.6,0-3.9,0l-31.3,0h-9.2V266h43.9c4.6,0,8.6-0.2,12-0.6c3.4-0.4,6.3-1,8.8-1.8
			c2.4-0.8,4.4-1.9,5.9-3.3s2.7-3,3.5-4.9v28.7c-0.7-1.7-1.9-3.3-3.4-4.6c-1.5-1.3-3.5-2.4-5.9-3.3c-2.4-0.9-5.4-1.5-8.8-2
			c-3.4-0.4-7.5-0.7-12.1-0.7h-43.9v47.9l39.2,0c6.7,0,12.9-0.2,18.5-0.6c5.6-0.4,10.7-1,15.2-1.8c4.5-0.8,8.4-1.9,11.7-3.2
			c3.3-1.3,6.1-2.9,8.2-4.8l-4.3,18.2c-5.5,0-10.7,0-15.6,0c-4.9,0-9.6,0-14.2,0c-4.5,0-9,0-13.3,0c-4.3,0-8.6,0-12.9,0h-46.7
			c0.3-5.3,0.5-10.9,0.7-16.9c0.2-6,0.3-12.2,0.4-18.6c0.1-6.4,0.1-12.9,0.1-19.4c0-6.6,0-13.1-0.1-19.4c-0.1-6.4-0.2-12.6-0.4-18.6
			c-0.2-6-0.4-11.6-0.7-16.9H644z"/>
		<path d="M734,219.2c4.2,0,8.2,0.6,11.8,1.9c3.6,1.3,7,3.1,10,5.4c3,2.3,5.7,5.1,8,8.4c2.3,3.3,4.3,6.9,6,10.9
			c1.6,4,2.9,8.4,3.7,13c0.9,4.7,1.3,9.5,1.4,14.6c0.1,5-0.3,9.8-1.1,14.5c-0.8,4.7-2,9.1-3.5,13.2c-1.6,4.1-3.5,7.9-5.9,11.3
			c-2.4,3.4-5.1,6.4-8.1,8.8c-3.1,2.5-6.5,4.4-10.2,5.7c-3.8,1.4-7.8,2-12.2,2h-71.2c0.2-3.6,0.4-7.4,0.5-11.3
			c0.2-4,0.3-8.1,0.4-12.3c0.1-4.2,0.2-8.5,0.3-12.9c0.1-4.4,0.1-8.8,0.1-13.3c0-5.3,0-10.6,0-16c0-5.3-0.1-10.5-0.2-15.6
			c-0.1-5.1-0.2-10.1-0.4-14.9c-0.2-4.8-0.4-9.3-0.6-13.6l56.3,0H734z M733.7,321.5c3.6,0,6.7-0.6,9.5-1.9c2.8-1.3,5.2-3,7.3-5.2
			c2.1-2.2,3.8-4.8,5.3-7.9c1.4-3,2.6-6.3,3.5-9.9c0.9-3.5,1.5-7.3,1.9-11.2c0.4-3.9,0.6-7.8,0.6-11.8c0-3.9-0.2-7.8-0.6-11.6
			c-0.4-3.8-1.1-7.5-2-11c-0.9-3.5-2.1-6.7-3.5-9.7c-1.4-3-3.2-5.5-5.3-7.7c-2.1-2.2-4.5-3.9-7.3-5.1s-5.9-1.8-9.5-1.8h-14.4
			l-42.2,0l0,94.8H733.7z"/>
		<path d="M88.6,351.7h4.5v31.7h-4.5V351.7z"/>
		<path d="M116.2,382.6c-2.2-0.7-4-1.7-5.2-2.9l1.7-3.5c1.2,1.1,2.8,2,4.6,2.6c1.9,0.7,3.8,1,5.8,1c2.6,0,4.6-0.4,5.9-1.3
			c1.3-0.9,1.9-2.1,1.9-3.5c0-1.1-0.4-2-1.1-2.6c-0.7-0.7-1.6-1.2-2.6-1.6c-1-0.4-2.5-0.8-4.4-1.2c-2.4-0.6-4.3-1.1-5.8-1.7
			c-1.5-0.6-2.7-1.5-3.8-2.6c-1-1.2-1.6-2.8-1.6-4.8c0-1.7,0.4-3.2,1.3-4.6c0.9-1.4,2.2-2.4,4-3.3c1.8-0.8,4.1-1.2,6.7-1.2
			c1.9,0,3.7,0.2,5.5,0.7c1.8,0.5,3.4,1.2,4.7,2.1l-1.5,3.6c-1.3-0.8-2.7-1.5-4.3-1.9c-1.5-0.4-3-0.7-4.4-0.7
			c-2.6,0-4.5,0.5-5.8,1.4c-1.3,0.9-1.9,2.1-1.9,3.6c0,1.1,0.4,2,1.1,2.6c0.7,0.7,1.6,1.2,2.7,1.6c1.1,0.4,2.5,0.8,4.4,1.2
			c2.4,0.6,4.3,1.1,5.7,1.7c1.4,0.6,2.7,1.4,3.7,2.6c1,1.2,1.6,2.8,1.6,4.7c0,1.7-0.5,3.2-1.4,4.5c-0.9,1.4-2.3,2.5-4.1,3.3
			c-1.8,0.8-4.1,1.2-6.8,1.2C120.8,383.7,118.5,383.4,116.2,382.6z"/>
		<path d="M153.3,351.7h4.5v27.7H175v3.9h-21.7V351.7z"/>
		<path d="M211.8,375.5h-16.8l-3.5,7.9h-4.7l14.3-31.7h4.5l14.4,31.7h-4.7L211.8,375.5z M210.2,371.8l-6.8-15.5l-6.8,15.5H210.2z"/>
		<path d="M263.2,351.7v31.7h-3.7l-19-23.6v23.6H236v-31.7h3.7l19,23.6v-23.6H263.2z"/>
		<path d="M284,351.7h13.3c3.3,0,6.3,0.7,8.9,2c2.6,1.3,4.6,3.2,6,5.6c1.4,2.4,2.1,5.1,2.1,8.3s-0.7,5.9-2.1,8.3
			c-1.4,2.4-3.4,4.3-6,5.6c-2.6,1.3-5.6,2-8.9,2H284V351.7z M297.1,379.4c2.6,0,4.8-0.5,6.8-1.5c1.9-1,3.4-2.4,4.5-4.2
			c1.1-1.8,1.6-3.9,1.6-6.2c0-2.4-0.5-4.4-1.6-6.2c-1.1-1.8-2.6-3.2-4.5-4.2c-1.9-1-4.2-1.5-6.8-1.5h-8.5v23.8H297.1z"/>
		<path d="M361.7,381.6c-2.5-1.4-4.5-3.3-6-5.8c-1.4-2.5-2.2-5.2-2.2-8.3c0-3.1,0.7-5.8,2.2-8.3c1.4-2.5,3.5-4.4,6-5.8
			c2.6-1.4,5.4-2.1,8.6-2.1c2.5,0,4.7,0.4,6.8,1.2c2,0.8,3.8,2.1,5.2,3.7l-2.9,2.8c-2.4-2.5-5.4-3.8-8.9-3.8c-2.4,0-4.5,0.5-6.4,1.6
			c-1.9,1.1-3.4,2.5-4.5,4.4c-1.1,1.9-1.6,3.9-1.6,6.2s0.5,4.4,1.6,6.2c1.1,1.9,2.6,3.3,4.5,4.4c1.9,1.1,4,1.6,6.4,1.6
			c3.5,0,6.5-1.3,8.9-3.8l2.9,2.8c-1.4,1.6-3.2,2.9-5.3,3.7c-2.1,0.8-4.3,1.3-6.8,1.3C367.1,383.7,364.3,383,361.7,381.6z"/>
		<path d="M421.3,383.4l-6.8-9.7c-0.8,0.1-1.5,0.1-2,0.1h-7.8v9.6h-4.5v-31.7h12.3c4.1,0,7.3,1,9.7,2.9c2.4,2,3.5,4.7,3.5,8.1
			c0,2.4-0.6,4.5-1.8,6.2c-1.2,1.7-2.9,3-5.2,3.8l7.5,10.6H421.3z M418.9,368c1.5-1.2,2.3-3,2.3-5.3c0-2.3-0.8-4-2.3-5.3
			c-1.5-1.2-3.7-1.8-6.6-1.8h-7.7v14.2h7.7C415.2,369.9,417.4,369.3,418.9,368z"/>
		<path d="M467.3,379.4v3.9h-23v-31.7h22.3v3.9h-17.8v9.7h15.9v3.8h-15.9v10.2H467.3z"/>
		<path d="M506.1,375.5h-16.8l-3.5,7.9h-4.7l14.3-31.7h4.5l14.4,31.7h-4.7L506.1,375.5z M504.5,371.8l-6.8-15.5l-6.8,15.5H504.5z"/>
		<path d="M535,355.7h-10.9v-3.9h26.2v3.9h-10.9v27.7H535V355.7z"/>
		<path d="M566.6,351.7h4.5v31.7h-4.5V351.7z"/>
		<path d="M597.5,381.6c-2.6-1.4-4.6-3.3-6-5.8c-1.5-2.5-2.2-5.2-2.2-8.3c0-3,0.7-5.8,2.2-8.3c1.5-2.5,3.5-4.4,6-5.8
			c2.6-1.4,5.4-2.1,8.6-2.1c3.2,0,6,0.7,8.6,2.1c2.6,1.4,4.6,3.3,6,5.8c1.4,2.5,2.2,5.2,2.2,8.3c0,3.1-0.7,5.8-2.2,8.3
			c-1.4,2.5-3.5,4.4-6,5.8c-2.6,1.4-5.4,2.1-8.6,2.1C603,383.7,600.1,383,597.5,381.6z M612.4,378.1c1.9-1.1,3.3-2.5,4.4-4.4
			c1.1-1.9,1.6-3.9,1.6-6.2s-0.5-4.4-1.6-6.2c-1.1-1.9-2.5-3.3-4.4-4.4c-1.9-1.1-3.9-1.6-6.3-1.6c-2.3,0-4.4,0.5-6.3,1.6
			c-1.9,1.1-3.4,2.5-4.4,4.4c-1.1,1.9-1.6,3.9-1.6,6.2s0.5,4.4,1.6,6.2c1.1,1.9,2.5,3.3,4.4,4.4c1.9,1.1,4,1.6,6.3,1.6
			C608.5,379.7,610.6,379.2,612.4,378.1z"/>
		<path d="M668.4,351.7v31.7h-3.7l-19-23.6v23.6h-4.5v-31.7h3.7l19,23.6v-23.6H668.4z"/>
		<path d="M691.5,382.6c-2.2-0.7-4-1.7-5.2-2.9l1.7-3.5c1.2,1.1,2.8,2,4.6,2.6c1.9,0.7,3.8,1,5.8,1c2.6,0,4.6-0.4,5.9-1.3
			c1.3-0.9,1.9-2.1,1.9-3.5c0-1.1-0.4-2-1.1-2.6c-0.7-0.7-1.6-1.2-2.6-1.6c-1-0.4-2.5-0.8-4.4-1.2c-2.4-0.6-4.3-1.1-5.8-1.7
			c-1.5-0.6-2.7-1.5-3.8-2.6c-1-1.2-1.6-2.8-1.6-4.8c0-1.7,0.4-3.2,1.3-4.6c0.9-1.4,2.2-2.4,4-3.3c1.8-0.8,4.1-1.2,6.7-1.2
			c1.9,0,3.7,0.2,5.5,0.7c1.8,0.5,3.4,1.2,4.7,2.1l-1.5,3.6c-1.3-0.8-2.7-1.5-4.3-1.9c-1.5-0.4-3-0.7-4.4-0.7
			c-2.6,0-4.5,0.5-5.8,1.4c-1.3,0.9-1.9,2.1-1.9,3.6c0,1.1,0.4,2,1.1,2.6c0.7,0.7,1.6,1.2,2.7,1.6c1.1,0.4,2.5,0.8,4.4,1.2
			c2.4,0.6,4.3,1.1,5.7,1.7c1.4,0.6,2.7,1.4,3.7,2.6c1,1.2,1.6,2.8,1.6,4.7c0,1.7-0.5,3.2-1.4,4.5c-0.9,1.4-2.3,2.5-4.1,3.3
			c-1.8,0.8-4.1,1.2-6.8,1.2C696,383.7,693.7,383.4,691.5,382.6z"/>
	</g>
</g>
</svg>
